<svg width="768" height="309" viewBox="0 0 768 309" fill="none" xmlns="http://www.w3.org/2000/svg">
<path d="M18.2741 162.643V12.8537H60.8942V29.2415H38.7884V146.314H60.8942V162.643H18.2741ZM114.656 138.768C105.617 138.768 97.8551 136.784 91.3707 132.815C84.9257 128.845 79.9543 123.363 76.4567 116.368C72.9983 109.333 71.2692 101.238 71.2692 92.081C71.2692 82.8849 73.0376 74.7696 76.5746 67.7351C80.1115 60.6612 85.1025 55.1593 91.5476 51.2294C98.032 47.2602 105.695 45.2756 114.538 45.2756C121.887 45.2756 128.391 46.6314 134.05 49.343C139.748 52.0154 144.287 55.8078 147.667 60.7202C151.047 65.5933 152.972 71.2917 153.444 77.8153H133.048C132.222 73.4531 130.257 69.8179 127.153 66.9098C124.087 63.9624 119.981 62.4886 114.832 62.4886C110.47 62.4886 106.638 63.6676 103.337 66.0256C100.036 68.3442 97.4621 71.6847 95.6151 76.0469C93.8073 80.4091 92.9034 85.6359 92.9034 91.7273C92.9034 97.8973 93.8073 103.203 95.6151 107.643C97.4228 112.045 99.9576 115.444 103.219 117.842C106.521 120.2 110.392 121.379 114.832 121.379C117.976 121.379 120.786 120.789 123.262 119.61C125.777 118.392 127.88 116.643 129.57 114.364C131.259 112.084 132.419 109.314 133.048 106.052H153.444C152.933 112.458 151.047 118.136 147.785 123.088C144.523 128 140.082 131.852 134.462 134.642C128.843 137.393 122.24 138.768 114.656 138.768ZM210.462 138.768C201.62 138.768 193.957 136.823 187.472 132.933C180.988 129.042 175.957 123.599 172.381 116.604C168.844 109.608 167.076 101.434 167.076 92.081C167.076 82.7277 168.844 74.5339 172.381 67.4993C175.957 60.4647 180.988 55.0021 187.472 51.1115C193.957 47.2209 201.62 45.2756 210.462 45.2756C219.305 45.2756 226.968 47.2209 233.452 51.1115C239.937 55.0021 244.947 60.4647 248.484 67.4993C252.06 74.5339 253.849 82.7277 253.849 92.081C253.849 101.434 252.06 109.608 248.484 116.604C244.947 123.599 239.937 129.042 233.452 132.933C226.968 136.823 219.305 138.768 210.462 138.768ZM210.58 121.673C215.375 121.673 219.383 120.357 222.606 117.724C225.828 115.051 228.225 111.475 229.797 106.995C231.409 102.515 232.214 97.5239 232.214 92.022C232.214 86.4808 231.409 81.4702 229.797 76.9901C228.225 72.4706 225.828 68.8748 222.606 66.2024C219.383 63.5301 215.375 62.1939 210.58 62.1939C205.668 62.1939 201.581 63.5301 198.319 66.2024C195.096 68.8748 192.679 72.4706 191.068 76.9901C189.496 81.4702 188.71 86.4808 188.71 92.022C188.71 97.5239 189.496 102.515 191.068 106.995C192.679 111.475 195.096 115.051 198.319 117.724C201.581 120.357 205.668 121.673 210.58 121.673ZM305.561 138.592C298.448 138.592 292.082 136.764 286.462 133.109C280.842 129.455 276.401 124.149 273.14 117.193C269.878 110.237 268.247 101.788 268.247 91.8452C268.247 81.7846 269.897 73.2959 273.199 66.3793C276.539 59.4233 281.039 54.1768 286.698 50.6399C292.357 47.0637 298.664 45.2756 305.62 45.2756C310.926 45.2756 315.288 46.1794 318.707 47.9872C322.126 49.7557 324.838 51.8975 326.842 54.4126C328.846 56.8885 330.399 59.2268 331.499 61.4276H332.383V16.2727H353.782V137H332.796V122.734H331.499C330.399 124.935 328.807 127.273 326.724 129.749C324.641 132.186 321.89 134.269 318.471 135.998C315.052 137.727 310.749 138.592 305.561 138.592ZM311.515 121.084C316.035 121.084 319.886 119.866 323.069 117.429C326.252 114.953 328.669 111.514 330.32 107.113C331.971 102.711 332.796 97.5829 332.796 91.7273C332.796 85.8717 331.971 80.7824 330.32 76.4595C328.709 72.1366 326.311 68.7765 323.128 66.3793C319.984 63.982 316.113 62.7834 311.515 62.7834C306.76 62.7834 302.791 64.0213 299.608 66.4972C296.424 68.973 294.027 72.392 292.416 76.7543C290.805 81.1165 289.999 86.1075 289.999 91.7273C289.999 97.3864 290.805 102.436 292.416 106.877C294.066 111.279 296.483 114.757 299.667 117.311C302.889 119.826 306.839 121.084 311.515 121.084ZM416.606 138.768C407.528 138.768 399.688 136.882 393.086 133.109C386.523 129.297 381.473 123.913 377.936 116.957C374.399 109.962 372.631 101.729 372.631 92.2578C372.631 82.9439 374.399 74.7696 377.936 67.7351C381.512 60.6612 386.503 55.1593 392.909 51.2294C399.315 47.2602 406.84 45.2756 415.486 45.2756C421.067 45.2756 426.333 46.1794 431.285 47.9872C436.276 49.7557 440.677 52.5066 444.489 56.2401C448.34 59.9735 451.367 64.7287 453.567 70.5057C455.768 76.2434 456.868 83.0814 456.868 91.0199V97.5632H382.652V83.1797H436.413C436.374 79.0926 435.49 75.4574 433.76 72.2741C432.031 69.0516 429.614 66.5168 426.51 64.6697C423.444 62.8227 419.868 61.8991 415.781 61.8991C411.419 61.8991 407.587 62.9602 404.286 65.0824C400.985 67.1652 398.411 69.9162 396.564 73.3352C394.756 76.715 393.832 80.4287 393.793 84.4766V97.0327C393.793 102.299 394.756 106.818 396.682 110.591C398.607 114.324 401.299 117.193 404.758 119.197C408.216 121.162 412.264 122.145 416.901 122.145C420.006 122.145 422.816 121.713 425.331 120.848C427.846 119.944 430.027 118.628 431.874 116.898C433.721 115.169 435.116 113.027 436.059 110.473L455.984 112.713C454.727 117.979 452.329 122.577 448.792 126.507C445.295 130.398 440.815 133.424 435.352 135.585C429.89 137.707 423.641 138.768 416.606 138.768Z" fill="#282728"/>
<path d="M204.565 274.592C197.452 274.592 191.086 272.764 185.466 269.109C179.846 265.455 175.405 260.149 172.143 253.193C168.882 246.237 167.251 237.788 167.251 227.845C167.251 217.785 168.901 209.296 172.202 202.379C175.543 195.423 180.043 190.177 185.702 186.64C191.361 183.064 197.668 181.276 204.624 181.276C209.93 181.276 214.292 182.179 217.711 183.987C221.13 185.756 223.842 187.897 225.846 190.413C227.85 192.888 229.402 195.227 230.503 197.428H231.387V152.273H252.786V273H231.8V258.734H230.503C229.402 260.935 227.811 263.273 225.728 265.749C223.645 268.186 220.894 270.269 217.475 271.998C214.056 273.727 209.753 274.592 204.565 274.592ZM210.519 257.084C215.039 257.084 218.89 255.866 222.073 253.429C225.256 250.953 227.673 247.514 229.324 243.113C230.974 238.711 231.8 233.583 231.8 227.727C231.8 221.872 230.974 216.782 229.324 212.46C227.713 208.137 225.315 204.777 222.132 202.379C218.988 199.982 215.117 198.783 210.519 198.783C205.764 198.783 201.795 200.021 198.612 202.497C195.428 204.973 193.031 208.392 191.42 212.754C189.808 217.116 189.003 222.107 189.003 227.727C189.003 233.386 189.808 238.436 191.42 242.877C193.07 247.279 195.487 250.757 198.67 253.311C201.893 255.826 205.843 257.084 210.519 257.084ZM315.61 274.768C306.532 274.768 298.692 272.882 292.09 269.109C285.527 265.297 280.477 259.913 276.94 252.957C273.403 245.962 271.634 237.729 271.634 228.258C271.634 218.944 273.403 210.77 276.94 203.735C280.516 196.661 285.507 191.159 291.913 187.229C298.319 183.26 305.844 181.276 314.49 181.276C320.071 181.276 325.337 182.179 330.289 183.987C335.28 185.756 339.681 188.507 343.493 192.24C347.344 195.973 350.37 200.729 352.571 206.506C354.772 212.243 355.872 219.081 355.872 227.02V233.563H281.656V219.18H335.417C335.378 215.093 334.494 211.457 332.764 208.274C331.035 205.052 328.618 202.517 325.514 200.67C322.448 198.823 318.872 197.899 314.785 197.899C310.423 197.899 306.591 198.96 303.29 201.082C299.989 203.165 297.415 205.916 295.568 209.335C293.76 212.715 292.836 216.429 292.797 220.477V233.033C292.797 238.299 293.76 242.818 295.686 246.591C297.611 250.324 300.303 253.193 303.762 255.197C307.22 257.162 311.268 258.145 315.905 258.145C319.01 258.145 321.82 257.713 324.335 256.848C326.85 255.944 329.031 254.628 330.878 252.898C332.725 251.169 334.12 249.027 335.063 246.473L354.988 248.713C353.731 253.979 351.333 258.577 347.796 262.507C344.299 266.398 339.819 269.424 334.356 271.585C328.893 273.707 322.645 274.768 315.61 274.768ZM445.489 206.388L426.036 208.51C425.486 206.545 424.523 204.698 423.148 202.969C421.812 201.24 420.004 199.844 417.724 198.783C415.445 197.722 412.655 197.192 409.354 197.192C404.913 197.192 401.179 198.155 398.153 200.08C395.167 202.006 393.693 204.501 393.732 207.567C393.693 210.2 394.656 212.342 396.621 213.992C398.625 215.643 401.926 216.999 406.524 218.06L421.969 221.361C430.536 223.208 436.902 226.136 441.068 230.144C445.273 234.153 447.395 239.399 447.435 245.884C447.395 251.582 445.725 256.612 442.424 260.974C439.162 265.297 434.623 268.677 428.807 271.114C422.991 273.55 416.31 274.768 408.764 274.768C397.682 274.768 388.761 272.45 382.001 267.812C375.242 263.136 371.214 256.632 369.917 248.3L390.726 246.296C391.669 250.383 393.673 253.468 396.739 255.551C399.804 257.634 403.793 258.675 408.705 258.675C413.775 258.675 417.842 257.634 420.908 255.551C424.012 253.468 425.565 250.894 425.565 247.829C425.565 245.235 424.563 243.093 422.558 241.403C420.593 239.714 417.528 238.417 413.362 237.513L397.918 234.271C389.232 232.463 382.807 229.417 378.641 225.134C374.476 220.811 372.412 215.348 372.452 208.746C372.412 203.165 373.925 198.331 376.991 194.244C380.095 190.118 384.399 186.935 389.901 184.695C395.442 182.415 401.828 181.276 409.059 181.276C419.67 181.276 428.021 183.535 434.112 188.055C440.243 192.574 444.035 198.685 445.489 206.388ZM465.031 273V182.455H486.37V273H465.031ZM475.76 169.604C472.38 169.604 469.472 168.484 467.035 166.244C464.599 163.964 463.38 161.233 463.38 158.05C463.38 154.827 464.599 152.096 467.035 149.856C469.472 147.576 472.38 146.437 475.76 146.437C479.179 146.437 482.087 147.576 484.484 149.856C486.921 152.096 488.139 154.827 488.139 158.05C488.139 161.233 486.921 163.964 484.484 166.244C482.087 168.484 479.179 169.604 475.76 169.604ZM547.692 308.841C540.029 308.841 533.446 307.799 527.944 305.717C522.442 303.673 518.021 300.922 514.681 297.464C511.34 294.005 509.021 290.174 507.725 285.969L526.942 281.312C527.807 283.08 529.064 284.829 530.715 286.558C532.365 288.327 534.586 289.781 537.376 290.92C540.205 292.099 543.762 292.689 548.046 292.689C554.098 292.689 559.108 291.215 563.078 288.268C567.047 285.36 569.031 280.565 569.031 273.884V256.73H567.97C566.87 258.931 565.259 261.191 563.137 263.509C561.054 265.828 558.283 267.773 554.825 269.345C551.406 270.917 547.102 271.703 541.915 271.703C534.959 271.703 528.651 270.072 522.992 266.81C517.373 263.509 512.892 258.597 509.552 252.073C506.251 245.51 504.6 237.297 504.6 227.433C504.6 217.49 506.251 209.099 509.552 202.261C512.892 195.384 517.392 190.177 523.051 186.64C528.71 183.064 535.018 181.276 541.974 181.276C547.279 181.276 551.642 182.179 555.061 183.987C558.519 185.756 561.27 187.897 563.313 190.413C565.357 192.888 566.909 195.227 567.97 197.428H569.149V182.455H590.194V274.474C590.194 282.216 588.347 288.621 584.653 293.691C580.959 298.761 575.909 302.553 569.503 305.068C563.097 307.583 555.827 308.841 547.692 308.841ZM547.869 254.962C552.388 254.962 556.24 253.861 559.423 251.661C562.606 249.46 565.023 246.296 566.673 242.17C568.324 238.043 569.149 233.092 569.149 227.315C569.149 221.616 568.324 216.625 566.673 212.342C565.062 208.058 562.665 204.737 559.482 202.379C556.338 199.982 552.467 198.783 547.869 198.783C543.114 198.783 539.144 200.021 535.961 202.497C532.778 204.973 530.381 208.372 528.769 212.695C527.158 216.979 526.352 221.852 526.352 227.315C526.352 232.856 527.158 237.709 528.769 241.875C530.42 246.001 532.837 249.224 536.02 251.543C539.243 253.822 543.192 254.962 547.869 254.962ZM633.404 219.946V273H612.064V182.455H632.46V197.84H633.521C635.604 192.771 638.925 188.742 643.484 185.756C648.082 182.769 653.761 181.276 660.52 181.276C666.769 181.276 672.212 182.612 676.849 185.284C681.526 187.956 685.141 191.827 687.695 196.897C690.289 201.967 691.566 208.117 691.527 215.348V273H670.188V218.649C670.188 212.597 668.616 207.862 665.472 204.442C662.367 201.023 658.064 199.314 652.562 199.314C648.829 199.314 645.508 200.139 642.6 201.79C639.731 203.401 637.471 205.739 635.82 208.805C634.209 211.87 633.404 215.584 633.404 219.946ZM749.297 148.854V298.643H706.677V282.314H728.783V165.241H706.677V148.854H749.297Z" fill="#282728"/>
<path d="M17 263H160" stroke="#282728" stroke-width="18"/>
</svg>
