<svg width="1454" height="844" viewBox="0 0 1454 844" fill="none" xmlns="http://www.w3.org/2000/svg">
<path d="M0 284.052H1454M0 556.133H1454" stroke="url(#paint0_linear_50_79)" stroke-opacity="0.19" stroke-width="5"/>
<path d="M296.024 5.44162V843.451" stroke="url(#paint1_linear_50_79)" stroke-opacity="0.19" stroke-width="5"/>
<path d="M574.635 5.44162V843.451" stroke="url(#paint2_linear_50_79)" stroke-opacity="0.19" stroke-width="5"/>
<path d="M1179.74 5.44162V843.451" stroke="url(#paint3_linear_50_79)" stroke-opacity="0.19" stroke-width="5"/>
<circle cx="1353.87" cy="103.391" r="84.5659" stroke="url(#paint4_linear_50_79)" stroke-opacity="0.19" stroke-width="5"/>
<path d="M1267.9 280.243C1267.9 128.475 1144.86 5.44162 993.095 5.44162" stroke="url(#paint5_linear_50_79)" stroke-opacity="0.19" stroke-width="5"/>
<path d="M441.513 558.633C440.18 631.833 380.425 690.762 306.907 690.762C233.389 690.762 173.634 631.833 172.301 558.633H441.513Z" stroke="url(#paint6_linear_50_79)" stroke-opacity="0.19" stroke-width="5"/>
<path d="M1314.37 827.868C1241.17 826.535 1182.24 766.78 1182.24 693.262C1182.24 619.744 1241.17 559.989 1314.37 558.656L1314.37 827.868Z" stroke="url(#paint7_linear_50_79)" stroke-opacity="0.19" stroke-width="5"/>
<path d="M1045.11 284.398C1118.31 285.732 1177.24 345.486 1177.24 419.004C1177.24 492.523 1118.31 552.277 1045.11 553.61L1045.11 284.398Z" stroke="url(#paint8_linear_50_79)" stroke-opacity="0.19" stroke-width="5"/>
<path d="M709.264 283.706C636.125 282.335 577.135 220.953 577.135 145.291C577.135 69.6292 636.125 8.24718 709.264 6.87669L709.264 283.706Z" stroke="url(#paint9_linear_50_79)" stroke-opacity="0.19" stroke-width="5"/>
<path d="M992.551 1.63249C992.551 79.4703 931.156 142.57 855.422 142.57" stroke="url(#paint10_linear_50_79)" stroke-opacity="0.19" stroke-width="5"/>
<path d="M574.635 285.141C574.635 362.979 513.24 426.079 437.506 426.079" stroke="url(#paint11_linear_50_79)" stroke-opacity="0.19" stroke-width="5"/>
<path d="M717.205 556.133C639.067 556.133 575.723 497.175 575.723 424.446" stroke="url(#paint12_linear_50_79)" stroke-opacity="0.19" stroke-width="5"/>
<path d="M293.524 557.975C142.179 556.636 19.9132 433.774 19.9132 282.42C19.9132 131.066 142.179 8.204 293.524 6.86435L293.524 557.975Z" stroke="url(#paint13_linear_50_79)" stroke-opacity="0.19" stroke-width="5"/>
<path d="M577.149 840.951C578.489 727.478 670.891 635.904 784.681 635.904C898.471 635.904 990.873 727.478 992.213 840.951L577.149 840.951Z" stroke="url(#paint14_linear_50_79)" stroke-opacity="0.19" stroke-width="5"/>
<path d="M434.785 534.367C404.431 534.367 379.825 509.76 379.825 479.406" stroke="url(#paint15_linear_50_79)" stroke-opacity="0.19" stroke-width="5"/>
<circle cx="737.339" cy="337.924" r="52.4603" stroke="url(#paint16_linear_50_79)" stroke-opacity="0.19" stroke-width="5"/>
<path d="M1430.06 788.49C1430.06 758.137 1405.45 733.53 1375.1 733.53" stroke="url(#paint17_linear_50_79)" stroke-opacity="0.19" stroke-width="5"/>
<path d="M296.024 425.534H854.334" stroke="url(#paint18_linear_50_79)" stroke-opacity="0.19" stroke-width="5"/>
<path d="M853.246 286.229V839.097" stroke="url(#paint19_linear_50_79)" stroke-opacity="0.19" stroke-width="5"/>
<path d="M715.028 426.623V555.045" stroke="url(#paint20_linear_50_79)" stroke-opacity="0.19" stroke-width="5"/>
<path d="M715.028 648.641V839.097" stroke="url(#paint21_linear_50_79)" stroke-opacity="0.19" stroke-width="5"/>
<path d="M923.986 286.229V556.133" stroke="url(#paint22_linear_50_79)" stroke-opacity="0.19" stroke-width="5"/>
<path d="M994.728 5.44162L994.728 557.222" stroke="url(#paint23_linear_50_79)" stroke-opacity="0.19" stroke-width="5"/>
<path d="M717.205 489.745H854.334" stroke="url(#paint24_linear_50_79)" stroke-opacity="0.19" stroke-width="5"/>
<path d="M852.157 679.114H910.927" stroke="url(#paint25_linear_50_79)" stroke-opacity="0.19" stroke-width="5"/>
<path d="M853.79 721.014H951.739" stroke="url(#paint26_linear_50_79)" stroke-opacity="0.19" stroke-width="5"/>
<path d="M853.246 764.003H977.314" stroke="url(#paint27_linear_50_79)" stroke-opacity="0.19" stroke-width="5"/>
<path d="M853.79 804.271H989.83" stroke="url(#paint28_linear_50_79)" stroke-opacity="0.19" stroke-width="5"/>
<path d="M1267.9 556.133V279.699" stroke="url(#paint29_linear_50_79)" stroke-opacity="0.19" stroke-width="5"/>
<path d="M1372.38 555.045V282.964" stroke="url(#paint30_linear_50_79)" stroke-opacity="0.19" stroke-width="5"/>
<path d="M708.499 213.311H994.728" stroke="url(#paint31_linear_50_79)" stroke-opacity="0.19" stroke-width="5"/>
<path d="M996.904 142.57L58.7695 142.57" stroke="url(#paint32_linear_50_79)" stroke-opacity="0.19" stroke-width="5"/>
<path d="M117.539 72.9177H572.458" stroke="url(#paint33_linear_50_79)" stroke-opacity="0.19" stroke-width="5"/>
<path d="M28.2964 211.135L573.546 211.135" stroke="url(#paint34_linear_50_79)" stroke-opacity="0.19" stroke-width="5"/>
<path d="M852.157 140.394V0" stroke="url(#paint35_linear_50_79)" stroke-opacity="0.19" stroke-width="5"/>
<path d="M436.417 533.278V285.141" stroke="url(#paint36_linear_50_79)" stroke-opacity="0.19" stroke-width="5"/>
<path d="M190.457 623.609H0" stroke="url(#paint37_linear_50_79)" stroke-opacity="0.19" stroke-width="5"/>
<path d="M296.024 692.174H0" stroke="url(#paint38_linear_50_79)" stroke-opacity="0.19" stroke-width="5"/>
<path d="M296.024 764.003H0" stroke="url(#paint39_linear_50_79)" stroke-opacity="0.19" stroke-width="5"/>
<defs>
<linearGradient id="paint0_linear_50_79" x1="727" y1="284.052" x2="727" y2="556.133" gradientUnits="userSpaceOnUse">
<stop stop-color="#FB9600" stop-opacity="0"/>
<stop offset="0.708333" stop-color="#AD6904"/>
</linearGradient>
<linearGradient id="paint1_linear_50_79" x1="296.524" y1="5.44162" x2="296.524" y2="843.451" gradientUnits="userSpaceOnUse">
<stop stop-color="#FB9600" stop-opacity="0"/>
<stop offset="0.708333" stop-color="#AD6904"/>
</linearGradient>
<linearGradient id="paint2_linear_50_79" x1="575.135" y1="5.44162" x2="575.135" y2="843.451" gradientUnits="userSpaceOnUse">
<stop stop-color="#FB9600" stop-opacity="0"/>
<stop offset="0.708333" stop-color="#AD6904"/>
</linearGradient>
<linearGradient id="paint3_linear_50_79" x1="1180.24" y1="5.44162" x2="1180.24" y2="843.451" gradientUnits="userSpaceOnUse">
<stop stop-color="#FB9600" stop-opacity="0"/>
<stop offset="0.708333" stop-color="#AD6904"/>
</linearGradient>
<linearGradient id="paint4_linear_50_79" x1="1353.87" y1="16.3248" x2="1353.87" y2="190.457" gradientUnits="userSpaceOnUse">
<stop stop-color="#FB9600" stop-opacity="0"/>
<stop offset="0.708333" stop-color="#AD6904"/>
</linearGradient>
<linearGradient id="paint5_linear_50_79" x1="1130.5" y1="5.44162" x2="1130.5" y2="280.243" gradientUnits="userSpaceOnUse">
<stop stop-color="#FB9600" stop-opacity="0"/>
<stop offset="0.708333" stop-color="#AD6904"/>
</linearGradient>
<linearGradient id="paint6_linear_50_79" x1="306.907" y1="556.133" x2="306.907" y2="693.262" gradientUnits="userSpaceOnUse">
<stop stop-color="#FB9600" stop-opacity="0"/>
<stop offset="0.708333" stop-color="#AD6904"/>
</linearGradient>
<linearGradient id="paint7_linear_50_79" x1="1316.87" y1="693.262" x2="1179.74" y2="693.262" gradientUnits="userSpaceOnUse">
<stop stop-color="#FB9600" stop-opacity="0"/>
<stop offset="0.708333" stop-color="#AD6904"/>
</linearGradient>
<linearGradient id="paint8_linear_50_79" x1="1042.61" y1="419.005" x2="1179.74" y2="419.004" gradientUnits="userSpaceOnUse">
<stop stop-color="#FB9600" stop-opacity="0"/>
<stop offset="0.708333" stop-color="#AD6904"/>
</linearGradient>
<linearGradient id="paint9_linear_50_79" x1="711.764" y1="145.291" x2="574.635" y2="145.291" gradientUnits="userSpaceOnUse">
<stop stop-color="#FB9600" stop-opacity="0"/>
<stop offset="0.708333" stop-color="#AD6904"/>
</linearGradient>
<linearGradient id="paint10_linear_50_79" x1="855.422" y1="72.1014" x2="992.551" y2="72.1014" gradientUnits="userSpaceOnUse">
<stop stop-color="#FB9600" stop-opacity="0"/>
<stop offset="0.708333" stop-color="#AD6904"/>
</linearGradient>
<linearGradient id="paint11_linear_50_79" x1="437.506" y1="355.61" x2="574.635" y2="355.61" gradientUnits="userSpaceOnUse">
<stop stop-color="#FB9600" stop-opacity="0"/>
<stop offset="0.708333" stop-color="#AD6904"/>
</linearGradient>
<linearGradient id="paint12_linear_50_79" x1="646.464" y1="424.446" x2="646.464" y2="556.133" gradientUnits="userSpaceOnUse">
<stop stop-color="#FB9600" stop-opacity="0"/>
<stop offset="0.708333" stop-color="#AD6904"/>
</linearGradient>
<linearGradient id="paint13_linear_50_79" x1="296.024" y1="282.42" x2="17.4132" y2="282.42" gradientUnits="userSpaceOnUse">
<stop stop-color="#FB9600" stop-opacity="0"/>
<stop offset="0.708333" stop-color="#AD6904"/>
</linearGradient>
<linearGradient id="paint14_linear_50_79" x1="784.681" y1="843.451" x2="784.681" y2="633.404" gradientUnits="userSpaceOnUse">
<stop stop-color="#FB9600" stop-opacity="0"/>
<stop offset="0.708333" stop-color="#AD6904"/>
</linearGradient>
<linearGradient id="paint15_linear_50_79" x1="434.785" y1="424.446" x2="434.785" y2="534.367" gradientUnits="userSpaceOnUse">
<stop stop-color="#FB9600" stop-opacity="0"/>
<stop offset="0.708333" stop-color="#AD6904"/>
</linearGradient>
<linearGradient id="paint16_linear_50_79" x1="737.339" y1="282.964" x2="737.339" y2="392.885" gradientUnits="userSpaceOnUse">
<stop stop-color="#FB9600" stop-opacity="0"/>
<stop offset="0.708333" stop-color="#AD6904"/>
</linearGradient>
<linearGradient id="paint17_linear_50_79" x1="1375.1" y1="733.53" x2="1375.1" y2="843.451" gradientUnits="userSpaceOnUse">
<stop stop-color="#FB9600" stop-opacity="0"/>
<stop offset="0.708333" stop-color="#AD6904"/>
</linearGradient>
<linearGradient id="paint18_linear_50_79" x1="575.179" y1="425.534" x2="575.179" y2="426.534" gradientUnits="userSpaceOnUse">
<stop stop-color="#FB9600" stop-opacity="0"/>
<stop offset="0.708333" stop-color="#AD6904"/>
</linearGradient>
<linearGradient id="paint19_linear_50_79" x1="853.746" y1="286.229" x2="853.746" y2="839.097" gradientUnits="userSpaceOnUse">
<stop stop-color="#FB9600" stop-opacity="0"/>
<stop offset="0.708333" stop-color="#AD6904"/>
</linearGradient>
<linearGradient id="paint20_linear_50_79" x1="715.528" y1="426.623" x2="715.528" y2="555.045" gradientUnits="userSpaceOnUse">
<stop stop-color="#FB9600" stop-opacity="0"/>
<stop offset="0.708333" stop-color="#AD6904"/>
</linearGradient>
<linearGradient id="paint21_linear_50_79" x1="715.528" y1="648.641" x2="715.528" y2="839.097" gradientUnits="userSpaceOnUse">
<stop stop-color="#FB9600" stop-opacity="0"/>
<stop offset="0.708333" stop-color="#AD6904"/>
</linearGradient>
<linearGradient id="paint22_linear_50_79" x1="924.486" y1="286.229" x2="924.486" y2="556.133" gradientUnits="userSpaceOnUse">
<stop stop-color="#FB9600" stop-opacity="0"/>
<stop offset="0.708333" stop-color="#AD6904"/>
</linearGradient>
<linearGradient id="paint23_linear_50_79" x1="995.228" y1="5.44162" x2="995.228" y2="557.222" gradientUnits="userSpaceOnUse">
<stop stop-color="#FB9600" stop-opacity="0"/>
<stop offset="0.708333" stop-color="#AD6904"/>
</linearGradient>
<linearGradient id="paint24_linear_50_79" x1="785.769" y1="489.745" x2="785.769" y2="490.745" gradientUnits="userSpaceOnUse">
<stop stop-color="#FB9600" stop-opacity="0"/>
<stop offset="0.708333" stop-color="#AD6904"/>
</linearGradient>
<linearGradient id="paint25_linear_50_79" x1="881.542" y1="679.114" x2="881.542" y2="680.114" gradientUnits="userSpaceOnUse">
<stop stop-color="#FB9600" stop-opacity="0"/>
<stop offset="0.708333" stop-color="#AD6904"/>
</linearGradient>
<linearGradient id="paint26_linear_50_79" x1="902.764" y1="721.014" x2="902.764" y2="722.014" gradientUnits="userSpaceOnUse">
<stop stop-color="#FB9600" stop-opacity="0"/>
<stop offset="0.708333" stop-color="#AD6904"/>
</linearGradient>
<linearGradient id="paint27_linear_50_79" x1="915.28" y1="764.003" x2="915.28" y2="765.003" gradientUnits="userSpaceOnUse">
<stop stop-color="#FB9600" stop-opacity="0"/>
<stop offset="0.708333" stop-color="#AD6904"/>
</linearGradient>
<linearGradient id="paint28_linear_50_79" x1="921.81" y1="804.271" x2="921.81" y2="805.271" gradientUnits="userSpaceOnUse">
<stop stop-color="#FB9600" stop-opacity="0"/>
<stop offset="0.708333" stop-color="#AD6904"/>
</linearGradient>
<linearGradient id="paint29_linear_50_79" x1="1268.4" y1="279.699" x2="1268.4" y2="556.133" gradientUnits="userSpaceOnUse">
<stop stop-color="#FB9600" stop-opacity="0"/>
<stop offset="0.708333" stop-color="#AD6904"/>
</linearGradient>
<linearGradient id="paint30_linear_50_79" x1="1372.88" y1="282.964" x2="1372.88" y2="555.045" gradientUnits="userSpaceOnUse">
<stop stop-color="#FB9600" stop-opacity="0"/>
<stop offset="0.708333" stop-color="#AD6904"/>
</linearGradient>
<linearGradient id="paint31_linear_50_79" x1="851.613" y1="213.311" x2="851.613" y2="214.311" gradientUnits="userSpaceOnUse">
<stop stop-color="#FB9600" stop-opacity="0"/>
<stop offset="0.708333" stop-color="#AD6904"/>
</linearGradient>
<linearGradient id="paint32_linear_50_79" x1="527.837" y1="142.57" x2="527.837" y2="143.57" gradientUnits="userSpaceOnUse">
<stop stop-color="#FB9600" stop-opacity="0"/>
<stop offset="0.708333" stop-color="#AD6904"/>
</linearGradient>
<linearGradient id="paint33_linear_50_79" x1="344.999" y1="72.9177" x2="344.999" y2="73.9177" gradientUnits="userSpaceOnUse">
<stop stop-color="#FB9600" stop-opacity="0"/>
<stop offset="0.708333" stop-color="#AD6904"/>
</linearGradient>
<linearGradient id="paint34_linear_50_79" x1="300.921" y1="211.135" x2="300.921" y2="212.135" gradientUnits="userSpaceOnUse">
<stop stop-color="#FB9600" stop-opacity="0"/>
<stop offset="0.708333" stop-color="#AD6904"/>
</linearGradient>
<linearGradient id="paint35_linear_50_79" x1="852.657" y1="0" x2="852.657" y2="140.394" gradientUnits="userSpaceOnUse">
<stop stop-color="#FB9600" stop-opacity="0"/>
<stop offset="0.708333" stop-color="#AD6904"/>
</linearGradient>
<linearGradient id="paint36_linear_50_79" x1="436.917" y1="285.141" x2="436.917" y2="533.278" gradientUnits="userSpaceOnUse">
<stop stop-color="#FB9600" stop-opacity="0"/>
<stop offset="0.708333" stop-color="#AD6904"/>
</linearGradient>
<linearGradient id="paint37_linear_50_79" x1="95.2283" y1="623.609" x2="95.2283" y2="624.609" gradientUnits="userSpaceOnUse">
<stop stop-color="#FB9600" stop-opacity="0"/>
<stop offset="0.708333" stop-color="#AD6904"/>
</linearGradient>
<linearGradient id="paint38_linear_50_79" x1="148.012" y1="692.174" x2="148.012" y2="693.174" gradientUnits="userSpaceOnUse">
<stop stop-color="#FB9600" stop-opacity="0"/>
<stop offset="0.708333" stop-color="#AD6904"/>
</linearGradient>
<linearGradient id="paint39_linear_50_79" x1="148.012" y1="764.003" x2="148.012" y2="765.003" gradientUnits="userSpaceOnUse">
<stop stop-color="#FB9600" stop-opacity="0"/>
<stop offset="0.708333" stop-color="#AD6904"/>
</linearGradient>
</defs>
</svg>
